<svg width="220" height="42" viewBox="0 0 220 42" fill="none" xmlns="http://www.w3.org/2000/svg">
<path d="M67.187 20.1715H61.598L61.5677 17.8238H66.6417C67.4798 17.8238 68.2119 17.6824 68.838 17.3997C69.464 17.1169 69.9487 16.713 70.292 16.188C70.6454 15.6528 70.8221 15.0166 70.8221 14.2795C70.8221 13.4717 70.6656 12.8154 70.3526 12.3105C70.0497 11.7955 69.5801 11.4219 68.944 11.1896C68.3179 10.9473 67.5202 10.8261 66.5508 10.8261H62.2492V30.4862H59.326V8.43299H66.5508C67.6818 8.43299 68.6915 8.54911 69.5801 8.78135C70.4687 9.0035 71.221 9.35692 71.8369 9.8416C72.463 10.3162 72.9376 10.9221 73.2607 11.6592C73.5838 12.3963 73.7454 13.2798 73.7454 14.3098C73.7454 15.2186 73.5132 16.0415 73.0487 16.7787C72.5842 17.5057 71.9379 18.1015 71.1099 18.566C70.292 19.0304 69.3327 19.3283 68.2321 19.4596L67.187 20.1715ZM67.0507 30.4862H60.4468L62.0978 28.1082H67.0507C67.9797 28.1082 68.7673 27.9467 69.4135 27.6235C70.0699 27.3004 70.5697 26.846 70.913 26.2603C71.2563 25.6646 71.428 24.9628 71.428 24.155C71.428 23.3371 71.2816 22.6303 70.9887 22.0345C70.6959 21.4387 70.2365 20.9793 69.6104 20.6562C68.9844 20.333 68.1766 20.1715 67.187 20.1715H63.0217L63.052 17.8238H68.7471L69.3681 18.672C70.4283 18.7629 71.327 19.0658 72.0641 19.5808C72.8013 20.0856 73.3617 20.7319 73.7454 21.5195C74.1392 22.3071 74.3361 23.1755 74.3361 24.1247C74.3361 25.498 74.0332 26.6592 73.4273 27.6084C72.8316 28.5475 71.9884 29.2644 70.8979 29.7592C69.8073 30.2439 68.5249 30.4862 67.0507 30.4862ZM77.4866 22.4737V22.1254C77.4866 20.9439 77.6582 19.8484 78.0015 18.8386C78.3449 17.8187 78.8397 16.9352 79.4859 16.188C80.1321 15.4306 80.9147 14.845 81.8336 14.431C82.7525 14.0069 83.7824 13.7948 84.9235 13.7948C86.0746 13.7948 87.1096 14.0069 88.0285 14.431C88.9575 14.845 89.7451 15.4306 90.3913 16.188C91.0477 16.9352 91.5475 17.8187 91.8908 18.8386C92.2342 19.8484 92.4058 20.9439 92.4058 22.1254V22.4737C92.4058 23.6552 92.2342 24.7508 91.8908 25.7605C91.5475 26.7703 91.0477 27.6538 90.3913 28.4111C89.7451 29.1584 88.9625 29.744 88.0436 30.1681C87.1349 30.5821 86.1049 30.7891 84.9538 30.7891C83.8026 30.7891 82.7676 30.5821 81.8487 30.1681C80.9299 29.744 80.1422 29.1584 79.4859 28.4111C78.8397 27.6538 78.3449 26.7703 78.0015 25.7605C77.6582 24.7508 77.4866 23.6552 77.4866 22.4737ZM80.2887 22.1254V22.4737C80.2887 23.2916 80.3846 24.0641 80.5764 24.7911C80.7683 25.5081 81.0561 26.1442 81.4398 26.6996C81.8336 27.255 82.3233 27.6942 82.909 28.0173C83.4947 28.3304 84.1762 28.4869 84.9538 28.4869C85.7212 28.4869 86.3927 28.3304 86.9682 28.0173C87.5539 27.6942 88.0386 27.255 88.4223 26.6996C88.806 26.1442 89.0938 25.5081 89.2856 24.7911C89.4876 24.0641 89.5886 23.2916 89.5886 22.4737V22.1254C89.5886 21.3176 89.4876 20.5552 89.2856 19.8383C89.0938 19.1112 88.801 18.47 88.4072 17.9147C88.0234 17.3492 87.5388 16.9049 86.9531 16.5818C86.3775 16.2586 85.701 16.0971 84.9235 16.0971C84.1561 16.0971 83.4795 16.2586 82.8938 16.5818C82.3183 16.9049 81.8336 17.3492 81.4398 17.9147C81.0561 18.47 80.7683 19.1112 80.5764 19.8383C80.3846 20.5552 80.2887 21.3176 80.2887 22.1254ZM95.1776 22.4737V22.1254C95.1776 20.9439 95.3493 19.8484 95.6926 18.8386C96.0359 17.8187 96.5307 16.9352 97.1769 16.188C97.8232 15.4306 98.6058 14.845 99.5246 14.431C100.444 14.0069 101.473 13.7948 102.615 13.7948C103.766 13.7948 104.801 14.0069 105.72 14.431C106.649 14.845 107.436 15.4306 108.082 16.188C108.739 16.9352 109.239 17.8187 109.582 18.8386C109.925 19.8484 110.097 20.9439 110.097 22.1254V22.4737C110.097 23.6552 109.925 24.7508 109.582 25.7605C109.239 26.7703 108.739 27.6538 108.082 28.4111C107.436 29.1584 106.654 29.744 105.735 30.1681C104.826 30.5821 103.796 30.7891 102.645 30.7891C101.494 30.7891 100.459 30.5821 99.5398 30.1681C98.6209 29.744 97.8333 29.1584 97.1769 28.4111C96.5307 27.6538 96.0359 26.7703 95.6926 25.7605C95.3493 24.7508 95.1776 23.6552 95.1776 22.4737ZM97.9797 22.1254V22.4737C97.9797 23.2916 98.0756 24.0641 98.2675 24.7911C98.4593 25.5081 98.7471 26.1442 99.1308 26.6996C99.5246 27.255 100.014 27.6942 100.6 28.0173C101.186 28.3304 101.867 28.4869 102.645 28.4869C103.412 28.4869 104.084 28.3304 104.659 28.0173C105.245 27.6942 105.73 27.255 106.113 26.6996C106.497 26.1442 106.785 25.5081 106.977 24.7911C107.179 24.0641 107.28 23.2916 107.28 22.4737V22.1254C107.28 21.3176 107.179 20.5552 106.977 19.8383C106.785 19.1112 106.492 18.47 106.098 17.9147C105.714 17.3492 105.23 16.9049 104.644 16.5818C104.069 16.2586 103.392 16.0971 102.615 16.0971C101.847 16.0971 101.171 16.2586 100.585 16.5818C100.009 16.9049 99.5246 17.3492 99.1308 17.9147C98.7471 18.47 98.4593 19.1112 98.2675 19.8383C98.0756 20.5552 97.9797 21.3176 97.9797 22.1254ZM116.398 17.3542V30.4862H113.581V14.0978H116.246L116.398 17.3542ZM115.822 21.671L114.52 21.6255C114.53 20.5047 114.676 19.4697 114.959 18.5205C115.242 17.5612 115.661 16.7282 116.216 16.0214C116.771 15.3145 117.463 14.7692 118.291 14.3855C119.119 13.9917 120.078 13.7948 121.169 13.7948C121.936 13.7948 122.643 13.9059 123.289 14.128C123.936 14.3401 124.496 14.6784 124.971 15.1429C125.445 15.6074 125.814 16.2031 126.076 16.9301C126.339 17.6572 126.47 18.5357 126.47 19.5656V30.4862H123.668V19.7019C123.668 18.8436 123.522 18.157 123.229 17.642C122.946 17.127 122.542 16.7534 122.017 16.5212C121.492 16.2788 120.876 16.1577 120.169 16.1577C119.341 16.1577 118.65 16.3041 118.094 16.5969C117.539 16.8897 117.095 17.2937 116.761 17.8086C116.428 18.3236 116.186 18.9143 116.034 19.5808C115.893 20.2371 115.822 20.9338 115.822 21.671ZM126.44 20.126L124.562 20.7016C124.572 19.8029 124.718 18.9396 125.001 18.1116C125.294 17.2836 125.713 16.5464 126.258 15.9002C126.813 15.2539 127.495 14.744 128.303 14.3704C129.111 13.9867 130.035 13.7948 131.075 13.7948C131.953 13.7948 132.731 13.9109 133.407 14.1432C134.094 14.3754 134.669 14.7339 135.134 15.2186C135.609 15.6932 135.967 16.3041 136.209 17.0513C136.452 17.7985 136.573 18.6871 136.573 19.7171V30.4862H133.756V19.6868C133.756 18.7679 133.609 18.056 133.316 17.5511C133.034 17.0362 132.63 16.6777 132.105 16.4757C131.59 16.2637 130.974 16.1577 130.257 16.1577C129.641 16.1577 129.096 16.2637 128.621 16.4757C128.146 16.6878 127.748 16.9806 127.424 17.3542C127.101 17.7178 126.854 18.1368 126.682 18.6114C126.521 19.086 126.44 19.5909 126.44 20.126ZM147.615 30.7891C146.474 30.7891 145.439 30.5973 144.51 30.2136C143.591 29.8198 142.798 29.2694 142.132 28.5626C141.475 27.8558 140.97 27.0177 140.617 26.0483C140.264 25.0789 140.087 24.0187 140.087 22.8675V22.2314C140.087 20.8985 140.284 19.712 140.678 18.672C141.071 17.6218 141.607 16.7332 142.283 16.0062C142.96 15.2792 143.727 14.7289 144.585 14.3552C145.444 13.9816 146.332 13.7948 147.251 13.7948C148.422 13.7948 149.432 13.9968 150.28 14.4007C151.139 14.8046 151.84 15.3701 152.386 16.0971C152.931 16.814 153.335 17.6622 153.597 18.6417C153.86 19.6111 153.991 20.6713 153.991 21.8224V23.0796H141.753V20.7925H151.189V20.5804C151.149 19.8534 150.997 19.1466 150.735 18.4599C150.482 17.7733 150.078 17.2078 149.523 16.7635C148.968 16.3192 148.21 16.0971 147.251 16.0971C146.615 16.0971 146.029 16.2334 145.494 16.506C144.959 16.7686 144.499 17.1624 144.116 17.6875C143.732 18.2125 143.434 18.8537 143.222 19.6111C143.01 20.3684 142.904 21.2418 142.904 22.2314V22.8675C142.904 23.6451 143.01 24.3771 143.222 25.0638C143.444 25.7403 143.762 26.3361 144.176 26.8511C144.6 27.366 145.11 27.7699 145.706 28.0628C146.312 28.3556 146.999 28.502 147.766 28.502C148.756 28.502 149.594 28.3001 150.28 27.8962C150.967 27.4923 151.568 26.952 152.083 26.2755L153.779 27.6235C153.426 28.1587 152.976 28.6686 152.431 29.1533C151.886 29.638 151.214 30.0318 150.417 30.3347C149.629 30.6377 148.695 30.7891 147.615 30.7891ZM160.065 16.6727V30.4862H157.263V14.0978H159.989L160.065 16.6727ZM165.184 14.0069L165.169 16.6121C164.937 16.5616 164.715 16.5313 164.503 16.5212C164.301 16.501 164.069 16.4909 163.806 16.4909C163.16 16.4909 162.589 16.5919 162.095 16.7938C161.6 16.9958 161.181 17.2785 160.837 17.642C160.494 18.0055 160.221 18.4397 160.02 18.9446C159.828 19.4394 159.701 19.9847 159.641 20.5804L158.853 21.0348C158.853 20.0453 158.949 19.1163 159.141 18.2479C159.343 17.3795 159.651 16.6121 160.065 15.9456C160.479 15.2691 161.004 14.744 161.64 14.3704C162.286 13.9867 163.054 13.7948 163.942 13.7948C164.144 13.7948 164.377 13.8201 164.639 13.8706C164.902 13.9109 165.083 13.9564 165.184 14.0069ZM176.832 27.6841V19.2475C176.832 18.6013 176.701 18.0409 176.438 17.5663C176.186 17.0816 175.802 16.708 175.287 16.4455C174.772 16.1829 174.136 16.0516 173.379 16.0516C172.672 16.0516 172.051 16.1728 171.516 16.4152C170.991 16.6575 170.577 16.9756 170.274 17.3694C169.981 17.7632 169.834 18.1873 169.834 18.6417H167.032C167.032 18.056 167.184 17.4754 167.487 16.8998C167.79 16.3243 168.224 15.8043 168.789 15.3398C169.365 14.8652 170.052 14.4916 170.849 14.2189C171.657 13.9362 172.556 13.7948 173.545 13.7948C174.737 13.7948 175.787 13.9968 176.696 14.4007C177.615 14.8046 178.332 15.4155 178.847 16.2334C179.372 17.0412 179.634 18.056 179.634 19.2778V26.9116C179.634 27.4569 179.68 28.0375 179.77 28.6535C179.871 29.2694 180.018 29.7996 180.21 30.2439V30.4862H177.286C177.145 30.1631 177.034 29.7339 176.953 29.1988C176.872 28.6535 176.832 28.1486 176.832 27.6841ZM177.317 20.5501L177.347 22.5192H174.515C173.717 22.5192 173.005 22.5848 172.379 22.7161C171.753 22.8373 171.228 23.0241 170.804 23.2765C170.38 23.5289 170.057 23.847 169.834 24.2307C169.612 24.6043 169.501 25.0436 169.501 25.5485C169.501 26.0634 169.617 26.533 169.85 26.9571C170.082 27.3812 170.43 27.7195 170.895 27.9719C171.369 28.2142 171.95 28.3354 172.637 28.3354C173.495 28.3354 174.252 28.1537 174.908 27.7901C175.565 27.4266 176.085 26.9823 176.469 26.4573C176.862 25.9322 177.074 25.4222 177.105 24.9275L178.301 26.2755C178.231 26.6996 178.039 27.1691 177.726 27.6841C177.413 28.1991 176.994 28.6939 176.469 29.1685C175.954 29.633 175.338 30.0217 174.621 30.3347C173.914 30.6377 173.116 30.7891 172.228 30.7891C171.117 30.7891 170.142 30.572 169.304 30.1378C168.476 29.7036 167.83 29.123 167.366 28.396C166.911 27.6589 166.684 26.8359 166.684 25.9271C166.684 25.0486 166.856 24.2762 167.199 23.6097C167.542 22.9332 168.037 22.3728 168.683 21.9285C169.33 21.4741 170.107 21.1308 171.016 20.8985C171.925 20.6663 172.939 20.5501 174.06 20.5501H177.317ZM186.844 17.5966V30.4862H184.042V14.0978H186.692L186.844 17.5966ZM186.177 21.671L185.011 21.6255C185.021 20.5047 185.188 19.4697 185.511 18.5205C185.834 17.5612 186.289 16.7282 186.874 16.0214C187.46 15.3145 188.157 14.7692 188.964 14.3855C189.782 13.9917 190.686 13.7948 191.676 13.7948C192.483 13.7948 193.21 13.9059 193.857 14.128C194.503 14.3401 195.053 14.6834 195.508 15.158C195.972 15.6326 196.326 16.2485 196.568 17.0059C196.81 17.7531 196.931 18.6669 196.931 19.7474V30.4862H194.114V19.7171C194.114 18.8588 193.988 18.1721 193.736 17.6572C193.483 17.1321 193.115 16.7534 192.63 16.5212C192.145 16.2788 191.549 16.1577 190.843 16.1577C190.146 16.1577 189.51 16.3041 188.934 16.5969C188.369 16.8897 187.879 17.2937 187.465 17.8086C187.061 18.3236 186.743 18.9143 186.511 19.5808C186.289 20.2371 186.177 20.9338 186.177 21.671ZM211.805 14.0978H214.35V30.1378C214.35 31.5818 214.057 32.8137 213.471 33.8336C212.886 34.8534 212.068 35.6259 211.018 36.151C209.978 36.6861 208.776 36.9537 207.413 36.9537C206.847 36.9537 206.181 36.8629 205.413 36.6811C204.656 36.5094 203.909 36.2116 203.172 35.7875C202.445 35.3735 201.834 34.813 201.339 34.1062L202.808 32.4401C203.495 33.2681 204.212 33.8437 204.959 34.1668C205.716 34.4899 206.464 34.6515 207.201 34.6515C208.089 34.6515 208.857 34.4849 209.503 34.1516C210.149 33.8184 210.649 33.3236 211.002 32.6673C211.366 32.021 211.548 31.2233 211.548 30.2742V17.7026L211.805 14.0978ZM200.521 22.4737V22.1557C200.521 20.9036 200.668 19.7676 200.96 18.7477C201.263 17.7178 201.692 16.8342 202.248 16.0971C202.813 15.36 203.495 14.7945 204.293 14.4007C205.09 13.9968 205.989 13.7948 206.989 13.7948C208.019 13.7948 208.917 13.9766 209.685 14.3401C210.462 14.6935 211.119 15.2135 211.654 15.9002C212.199 16.5767 212.628 17.3946 212.941 18.3539C213.254 19.3132 213.471 20.3987 213.592 21.6104V23.0039C213.481 24.2055 213.264 25.2859 212.941 26.2452C212.628 27.2045 212.199 28.0224 211.654 28.6989C211.119 29.3755 210.462 29.8955 209.685 30.259C208.907 30.6124 207.998 30.7891 206.958 30.7891C205.979 30.7891 205.09 30.5821 204.293 30.1681C203.505 29.7541 202.828 29.1735 202.263 28.4263C201.697 27.6791 201.263 26.8006 200.96 25.7908C200.668 24.7709 200.521 23.6653 200.521 22.4737ZM203.323 22.1557V22.4737C203.323 23.2916 203.404 24.0591 203.566 24.776C203.737 25.4929 203.995 26.124 204.338 26.6693C204.691 27.2146 205.141 27.6437 205.686 27.9568C206.231 28.2597 206.883 28.4111 207.64 28.4111C208.569 28.4111 209.336 28.2142 209.942 27.8204C210.548 27.4266 211.028 26.9066 211.381 26.2603C211.745 25.6141 212.027 24.9123 212.229 24.155V20.5047C212.118 19.9493 211.947 19.4142 211.714 18.8992C211.492 18.3741 211.199 17.9096 210.836 17.5057C210.482 17.0917 210.043 16.7635 209.518 16.5212C208.993 16.2788 208.377 16.1577 207.67 16.1577C206.903 16.1577 206.241 16.3192 205.686 16.6424C205.141 16.9554 204.691 17.3896 204.338 17.945C203.995 18.4902 203.737 19.1264 203.566 19.8534C203.404 20.5703 203.323 21.3378 203.323 22.1557Z" fill="#999999"/>
<path d="M18.453 18.3166C26.3747 13.4127 37.0625 17.0448 32.5933 25.6265C28.1242 34.2031 -12.7384 18.3064 4.00813 26.2065C20.7547 34.1065 27.2107 50.1966 34.0641 34.9866C40.9176 19.7765 49.1747 -13.1361 25.9515 6.86585C2.72828 26.8678 8.56505 24.4311 18.453 18.3166Z" fill="#999999"/>
</svg>
