<svg width="157" height="47" viewBox="0 0 157 47" fill="none" xmlns="http://www.w3.org/2000/svg">
<path d="M70.1226 23.7782H63.2057L63.1682 20.8727H69.4477C70.485 20.8727 71.391 20.6978 72.1658 20.3479C72.9405 19.998 73.5404 19.4981 73.9653 18.8483C74.4026 18.186 74.6213 17.3987 74.6213 16.4864C74.6213 15.4867 74.4276 14.6744 74.0402 14.0496C73.6653 13.4123 73.0843 12.9499 72.297 12.6625C71.5222 12.3625 70.5349 12.2126 69.3353 12.2126H64.0117V36.5435H60.394V9.2509H69.3353C70.7349 9.2509 71.9846 9.39461 73.0843 9.68203C74.184 9.95696 75.1149 10.3943 75.8772 10.9942C76.652 11.5815 77.2394 12.3313 77.6393 13.2436C78.0392 14.1558 78.2391 15.2493 78.2391 16.5239C78.2391 17.6486 77.9517 18.6671 77.3768 19.5793C76.802 20.4791 76.0022 21.2164 74.9775 21.7912C73.9653 22.3661 72.7781 22.7347 71.416 22.8972L70.1226 23.7782ZM69.9539 36.5435H61.7811L63.8243 33.6005H69.9539C71.1035 33.6005 72.0783 33.4006 72.8781 33.0007C73.6903 32.6008 74.3089 32.0384 74.7338 31.3136C75.1587 30.5763 75.3711 29.7078 75.3711 28.7081C75.3711 27.6959 75.1899 26.8211 74.8275 26.0838C74.4651 25.3465 73.8965 24.7779 73.1217 24.378C72.347 23.9781 71.3472 23.7782 70.1226 23.7782H64.9677L65.0052 20.8727H72.0533L72.8218 21.9224C74.134 22.0349 75.2462 22.4098 76.1584 23.0471C77.0707 23.672 77.7642 24.4717 78.2391 25.4465C78.7265 26.4212 78.9701 27.4959 78.9701 28.6706C78.9701 30.3701 78.5952 31.8072 77.8455 32.9819C77.1082 34.1441 76.0647 35.0314 74.7151 35.6437C73.3654 36.2435 71.7784 36.5435 69.9539 36.5435ZM87.5553 7.75131V36.5435H84.0688V7.75131H87.5553ZM96.8903 16.2615V36.5435H93.4037V16.2615H96.8903ZM93.1413 10.8817C93.1413 10.3194 93.31 9.84449 93.6474 9.45709C93.9973 9.0697 94.5097 8.876 95.1845 8.876C95.8468 8.876 96.3529 9.0697 96.7028 9.45709C97.0652 9.84449 97.2464 10.3194 97.2464 10.8817C97.2464 11.4191 97.0652 11.8814 96.7028 12.2688C96.3529 12.6437 95.8468 12.8312 95.1845 12.8312C94.5097 12.8312 93.9973 12.6437 93.6474 12.2688C93.31 11.8814 93.1413 11.4191 93.1413 10.8817ZM105.907 20.2916V36.5435H102.42V16.2615H105.719L105.907 20.2916ZM105.194 25.6339L103.582 25.5777C103.595 24.1906 103.776 22.9097 104.126 21.735C104.476 20.5478 104.994 19.5168 105.682 18.6421C106.369 17.7673 107.225 17.0925 108.25 16.6176C109.274 16.1303 110.462 15.8866 111.811 15.8866C112.761 15.8866 113.636 16.0241 114.435 16.299C115.235 16.5614 115.929 16.98 116.516 17.5549C117.104 18.1297 117.56 18.867 117.885 19.7668C118.209 20.6665 118.372 21.7537 118.372 23.0284V36.5435H114.904V23.1971C114.904 22.1349 114.723 21.2851 114.36 20.6478C114.011 20.0105 113.511 19.5481 112.861 19.2607C112.211 18.9608 111.449 18.8108 110.574 18.8108C109.549 18.8108 108.693 18.992 108.006 19.3544C107.319 19.7168 106.769 20.2167 106.356 20.854C105.944 21.4913 105.644 22.2224 105.457 23.0471C105.282 23.8594 105.194 24.7217 105.194 25.6339ZM118.334 23.722L116.01 24.4343C116.023 23.3221 116.204 22.2536 116.554 21.2289C116.916 20.2042 117.435 19.2919 118.109 18.4921C118.797 17.6923 119.64 17.0613 120.64 16.5989C121.64 16.124 122.783 15.8866 124.07 15.8866C125.158 15.8866 126.12 16.0303 126.957 16.3177C127.807 16.6051 128.519 17.0488 129.094 17.6486C129.681 18.2359 130.125 18.992 130.425 19.9167C130.725 20.8415 130.875 21.9412 130.875 23.2158V36.5435H127.388V23.1784C127.388 22.0412 127.207 21.1602 126.845 20.5353C126.495 19.898 125.995 19.4544 125.345 19.2044C124.708 18.942 123.945 18.8108 123.058 18.8108C122.296 18.8108 121.621 18.942 121.034 19.2044C120.446 19.4669 119.953 19.8293 119.553 20.2916C119.153 20.7415 118.847 21.2601 118.634 21.8475C118.434 22.4348 118.334 23.0596 118.334 23.722ZM139.591 20.1604V44.3413H136.105V16.2615H139.291L139.591 20.1604ZM153.256 26.2338V26.6274C153.256 28.102 153.081 29.4704 152.731 30.7325C152.381 31.9822 151.869 33.0694 151.194 33.9942C150.532 34.9189 149.713 35.6375 148.739 36.1498C147.764 36.6622 146.645 36.9184 145.383 36.9184C144.096 36.9184 142.959 36.7059 141.972 36.281C140.984 35.8561 140.147 35.2376 139.46 34.4253C138.773 33.613 138.223 32.6383 137.81 31.5011C137.41 30.3639 137.136 29.083 136.986 27.6584V25.559C137.136 24.0594 137.417 22.716 137.829 21.5288C138.241 20.3416 138.785 19.3294 139.46 18.4921C140.147 17.6424 140.978 16.9988 141.953 16.5614C142.928 16.1115 144.052 15.8866 145.327 15.8866C146.602 15.8866 147.733 16.1365 148.72 16.6364C149.707 17.1238 150.538 17.8236 151.213 18.7358C151.888 19.6481 152.394 20.7415 152.731 22.0162C153.081 23.2783 153.256 24.6842 153.256 26.2338ZM149.77 26.6274V26.2338C149.77 25.2215 149.663 24.2718 149.451 23.3845C149.238 22.4848 148.907 21.6975 148.457 21.0227C148.02 20.3354 147.458 19.798 146.77 19.4106C146.083 19.0107 145.265 18.8108 144.315 18.8108C143.44 18.8108 142.678 18.9608 142.028 19.2607C141.391 19.5606 140.847 19.9667 140.397 20.4791C139.947 20.979 139.579 21.5538 139.291 22.2036C139.016 22.8409 138.81 23.5033 138.673 24.1906V29.0455C138.923 29.9203 139.272 30.745 139.722 31.5198C140.172 32.2821 140.772 32.9007 141.522 33.3756C142.272 33.8379 143.215 34.0691 144.352 34.0691C145.29 34.0691 146.096 33.8754 146.77 33.488C147.458 33.0881 148.02 32.5445 148.457 31.8572C148.907 31.1699 149.238 30.3826 149.451 29.4954C149.663 28.5956 149.77 27.6396 149.77 26.6274Z" fill="#999999"/>
<path d="M36.5831 16.4782C39.4333 16.4782 41.7438 14.2007 41.7438 11.3913C41.7438 8.58183 39.4333 6.30432 36.5831 6.30432C33.7329 6.30432 31.4224 8.58183 31.4224 11.3913C31.4224 14.2007 33.7329 16.4782 36.5831 16.4782Z" fill="#999999"/>
<path d="M18.5205 11.3913C17.5193 11.3913 16.5388 11.4777 15.5789 11.6304C14.588 8.54257 11.6568 6.30432 8.19908 6.30432C3.92601 6.30432 0.458008 9.72276 0.458008 13.9348C0.458008 16.2697 1.52628 18.3604 3.20351 19.7593C1.46435 22.4961 0.458008 25.7263 0.458008 29.1956C0.458008 39.0287 8.54485 47 18.5205 47C28.4962 47 36.583 39.0287 36.583 29.1956C36.583 19.3625 28.4962 11.3913 18.5205 11.3913ZM25.5649 34.2826C24.6721 32.7616 23.0103 31.7391 21.1009 31.7391C19.1914 31.7391 17.5296 32.7616 16.6368 34.2826C16.1982 33.5348 15.9402 32.665 15.9402 31.7391C15.9402 28.9311 18.2522 26.6522 21.1009 26.6522C23.9496 26.6522 26.2616 28.9311 26.2616 31.7391C26.2616 32.665 26.0036 33.5348 25.5649 34.2826Z" fill="#999999"/>
</svg>
