<svg width="136" height="47" viewBox="0 0 136 47" fill="none" xmlns="http://www.w3.org/2000/svg">
<path d="M73.1333 43.7979V19.617L73.4333 15.718H76.6199V43.7979H73.1333ZM59.5058 26.084V25.6903C59.5058 24.1407 59.687 22.7349 60.0494 21.4727C60.4118 20.1981 60.9429 19.1046 61.6427 18.1924C62.3425 17.2801 63.186 16.5803 64.1733 16.0929C65.173 15.5931 66.3102 15.3431 67.5848 15.3431C68.8595 15.3431 69.9779 15.5681 70.9402 16.0179C71.9149 16.4553 72.7397 17.0989 73.4145 17.9487C74.1018 18.7859 74.6454 19.7982 75.0453 20.9853C75.4452 22.1725 75.7201 23.5159 75.8701 25.0155V26.74C75.7326 28.2271 75.464 29.5643 75.0641 30.7514C74.6642 31.9386 74.1206 32.9508 73.4333 33.7881C72.7584 34.6254 71.9274 35.2689 70.9402 35.7188C69.9654 36.1562 68.8345 36.3749 67.5474 36.3749C66.2977 36.3749 65.173 36.1187 64.1733 35.6064C63.186 35.094 62.3425 34.3754 61.6427 33.4507C60.9554 32.5259 60.4243 31.4387 60.0494 30.1891C59.687 28.9269 59.5058 27.5586 59.5058 26.084ZM62.9924 25.6903V26.084C62.9924 27.0962 63.0986 28.0522 63.311 28.9519C63.5235 29.8392 63.8484 30.6265 64.2857 31.3138C64.7356 32.0011 65.298 32.5447 65.9728 32.9446C66.6601 33.332 67.4724 33.5257 68.4096 33.5257C69.5593 33.5257 70.5153 33.2757 71.2776 32.7759C72.0524 32.276 72.671 31.6199 73.1333 30.8077C73.5957 29.9829 73.9519 29.1019 74.2018 28.1646V23.6471C74.0643 22.9598 73.8456 22.2912 73.5457 21.6414C73.2583 20.9916 72.8834 20.4105 72.421 19.8981C71.9587 19.3733 71.3963 18.9609 70.734 18.661C70.0842 18.3486 69.3219 18.1924 68.4471 18.1924C67.4974 18.1924 66.6788 18.3923 65.9915 18.7922C65.3042 19.1921 64.7356 19.7419 64.2857 20.4417C63.8484 21.1291 63.5235 21.9226 63.311 22.8223C63.0986 23.7221 62.9924 24.6781 62.9924 25.6903ZM85.6549 18.9047V36H82.1871V15.718H85.5612L85.6549 18.9047ZM91.9907 15.6056L91.972 18.8297C91.6845 18.7672 91.4096 18.7297 91.1472 18.7172C90.8972 18.6922 90.6098 18.6797 90.2849 18.6797C89.4851 18.6797 88.7791 18.8047 88.1667 19.0546C87.5544 19.3046 87.0358 19.6545 86.6109 20.1043C86.186 20.5542 85.8486 21.0916 85.5987 21.7164C85.3613 22.3287 85.205 23.0035 85.1301 23.7408L84.1553 24.3032C84.1553 23.0785 84.274 21.9288 84.5115 20.8541C84.7614 19.7794 85.1426 18.8297 85.6549 18.0049C86.1673 17.1676 86.8171 16.5178 87.6044 16.0554C88.4042 15.5806 89.3539 15.3431 90.4536 15.3431C90.7035 15.3431 90.991 15.3744 91.3159 15.4369C91.6408 15.4868 91.8657 15.5431 91.9907 15.6056ZM102.938 33.5257C103.762 33.5257 104.525 33.357 105.225 33.0196C105.924 32.6822 106.499 32.2198 106.949 31.6324C107.399 31.0326 107.655 30.3515 107.718 29.5892H111.017C110.954 30.7889 110.548 31.9074 109.798 32.9446C109.061 33.9693 108.093 34.8003 106.893 35.4377C105.693 36.0625 104.375 36.3749 102.938 36.3749C101.413 36.3749 100.082 36.1062 98.9451 35.5689C97.8204 35.0315 96.8831 34.2942 96.1333 33.357C95.396 32.4197 94.8399 31.345 94.465 30.1328C94.1026 28.9082 93.9214 27.6148 93.9214 26.2527V25.4654C93.9214 24.1032 94.1026 22.8161 94.465 21.6039C94.8399 20.3793 95.396 19.2983 96.1333 18.3611C96.8831 17.4238 97.8204 16.6865 98.9451 16.1492C100.082 15.6118 101.413 15.3431 102.938 15.3431C104.525 15.3431 105.912 15.668 107.099 16.3179C108.286 16.9552 109.217 17.83 109.892 18.9422C110.579 20.0419 110.954 21.2915 111.017 22.6911H107.718C107.655 21.8539 107.418 21.0978 107.005 20.423C106.605 19.7482 106.056 19.2108 105.356 18.8109C104.668 18.3985 103.862 18.1924 102.938 18.1924C101.876 18.1924 100.982 18.4048 100.257 18.8297C99.5449 19.2421 98.9763 19.8044 98.5514 20.5167C98.139 21.2165 97.8391 21.9976 97.6517 22.8598C97.4767 23.7096 97.3892 24.5781 97.3892 25.4654V26.2527C97.3892 27.1399 97.4767 28.0147 97.6517 28.8769C97.8266 29.7392 98.1203 30.5202 98.5327 31.2201C98.9575 31.9199 99.5261 32.4822 100.238 32.9071C100.963 33.3195 101.863 33.5257 102.938 33.5257ZM113.997 26.084V25.6528C113.997 24.1907 114.21 22.8348 114.635 21.5852C115.059 20.323 115.672 19.2296 116.472 18.3048C117.271 17.3676 118.24 16.6428 119.377 16.1304C120.514 15.6056 121.789 15.3431 123.201 15.3431C124.626 15.3431 125.906 15.6056 127.044 16.1304C128.193 16.6428 129.168 17.3676 129.968 18.3048C130.78 19.2296 131.399 20.323 131.824 21.5852C132.248 22.8348 132.461 24.1907 132.461 25.6528V26.084C132.461 27.5461 132.248 28.9019 131.824 30.1516C131.399 31.4013 130.78 32.4947 129.968 33.432C129.168 34.3567 128.2 35.0815 127.062 35.6064C125.938 36.1187 124.663 36.3749 123.238 36.3749C121.814 36.3749 120.533 36.1187 119.396 35.6064C118.259 35.0815 117.284 34.3567 116.472 33.432C115.672 32.4947 115.059 31.4013 114.635 30.1516C114.21 28.9019 113.997 27.5461 113.997 26.084ZM117.465 25.6528V26.084C117.465 27.0962 117.584 28.0522 117.821 28.9519C118.059 29.8392 118.415 30.6265 118.89 31.3138C119.377 32.0011 119.983 32.5447 120.708 32.9446C121.433 33.332 122.276 33.5257 123.238 33.5257C124.188 33.5257 125.019 33.332 125.731 32.9446C126.456 32.5447 127.056 32.0011 127.531 31.3138C128.006 30.6265 128.362 29.8392 128.599 28.9519C128.849 28.0522 128.974 27.0962 128.974 26.084V25.6528C128.974 24.6531 128.849 23.7096 128.599 22.8223C128.362 21.9226 128 21.1291 127.512 20.4417C127.037 19.7419 126.438 19.1921 125.713 18.7922C125 18.3923 124.163 18.1924 123.201 18.1924C122.251 18.1924 121.414 18.3923 120.689 18.7922C119.977 19.1921 119.377 19.7419 118.89 20.4417C118.415 21.1291 118.059 21.9226 117.821 22.8223C117.584 23.7096 117.465 24.6531 117.465 25.6528Z" fill="#999999"/>
<path d="M16.4392 5.51587H0.957031V20.7768H16.4392V5.51587Z" fill="#999999"/>
<path d="M26.7606 5.51587H21.5999V15.6898H26.7606V5.51587Z" fill="#999999"/>
<path d="M42.2428 5.51587H31.9213V20.7768H42.2428V5.51587Z" fill="#999999"/>
<path d="M31.9214 20.7766H16.4392V46.2114H31.9214V20.7766Z" fill="#999999"/>
<path d="M11.2785 36.0375H0.957031V46.2114H11.2785V36.0375Z" fill="#999999"/>
<path d="M11.2785 25.8635H0.957031V30.9505H11.2785V25.8635Z" fill="#999999"/>
<path opacity="0.8902" d="M42.2427 36.0375H37.082V46.2114H42.2427V36.0375Z" fill="#999999"/>
<path d="M42.2428 25.8635H37.0821V30.9505H42.2428V25.8635Z" fill="#999999"/>
</svg>
