<svg width="199" height="42" viewBox="0 0 199 42" fill="none" xmlns="http://www.w3.org/2000/svg">
<path d="M77.088 18.7391V20.1325C77.088 21.7885 76.881 23.2729 76.467 24.5856C76.053 25.8983 75.4573 27.0141 74.6798 27.9329C73.9022 28.8518 72.9682 29.5536 71.8777 30.0383C70.7972 30.523 69.5855 30.7653 68.2425 30.7653C66.9399 30.7653 65.7434 30.523 64.6528 30.0383C63.5724 29.5536 62.6333 28.8518 61.8356 27.9329C61.048 27.0141 60.4371 25.8983 60.0029 24.5856C59.5687 23.2729 59.3516 21.7885 59.3516 20.1325V18.7391C59.3516 17.083 59.5636 15.6037 59.9877 14.3011C60.4219 12.9885 61.0328 11.8727 61.8204 10.9538C62.608 10.0248 63.5421 9.31797 64.6225 8.83328C65.7131 8.3486 66.9096 8.10625 68.2122 8.10625C69.5552 8.10625 70.7669 8.3486 71.8474 8.83328C72.9379 9.31797 73.8719 10.0248 74.6495 10.9538C75.4371 11.8727 76.0379 12.9885 76.4519 14.3011C76.876 15.6037 77.088 17.083 77.088 18.7391ZM74.1951 20.1325V18.7088C74.1951 17.3961 74.0588 16.2348 73.7861 15.2251C73.5236 14.2153 73.1348 13.3671 72.6198 12.6805C72.1049 11.9938 71.4738 11.4738 70.7265 11.1204C69.9894 10.767 69.1513 10.5903 68.2122 10.5903C67.3034 10.5903 66.4805 10.767 65.7434 11.1204C65.0163 11.4738 64.3903 11.9938 63.8652 12.6805C63.3502 13.3671 62.9514 14.2153 62.6686 15.2251C62.3859 16.2348 62.2445 17.3961 62.2445 18.7088V20.1325C62.2445 21.4553 62.3859 22.6266 62.6686 23.6465C62.9514 24.6563 63.3553 25.5095 63.8803 26.2063C64.4155 26.8929 65.0466 27.4129 65.7737 27.7663C66.5108 28.1198 67.3337 28.2965 68.2425 28.2965C69.1917 28.2965 70.0349 28.1198 70.772 27.7663C71.5091 27.4129 72.1301 26.8929 72.635 26.2063C73.15 25.5095 73.5387 24.6563 73.8013 23.6465C74.0638 22.6266 74.1951 21.4553 74.1951 20.1325ZM83.8434 17.2244V36.7633H81.0261V14.074H83.601L83.8434 17.2244ZM94.8851 22.1319V22.4499C94.8851 23.6415 94.7437 24.7471 94.461 25.767C94.1783 26.7768 93.7643 27.6553 93.219 28.4025C92.6838 29.1497 92.0224 29.7303 91.2348 30.1443C90.4472 30.5583 89.5435 30.7653 88.5236 30.7653C87.4836 30.7653 86.5647 30.5937 85.767 30.2504C84.9692 29.907 84.2927 29.4072 83.7373 28.7509C83.182 28.0945 82.7377 27.3069 82.4044 26.388C82.0813 25.4691 81.8592 24.4341 81.738 23.283V21.5866C81.8592 20.3749 82.0864 19.2894 82.4196 18.3301C82.7528 17.3708 83.1921 16.5529 83.7373 15.8764C84.2927 15.1897 84.9642 14.6697 85.7518 14.3163C86.5394 13.9528 87.4482 13.771 88.4782 13.771C89.5081 13.771 90.422 13.973 91.2197 14.3769C92.0174 14.7707 92.6889 15.3362 93.2342 16.0733C93.7794 16.8104 94.1884 17.694 94.461 18.7239C94.7437 19.7438 94.8851 20.8798 94.8851 22.1319ZM92.0679 22.4499V22.1319C92.0679 21.314 91.982 20.5465 91.8104 19.8296C91.6387 19.1026 91.3711 18.4664 91.0076 17.9211C90.6542 17.3658 90.1998 16.9316 89.6444 16.6186C89.0891 16.2954 88.4277 16.1339 87.6603 16.1339C86.9534 16.1339 86.3375 16.255 85.8124 16.4974C85.2974 16.7397 84.8582 17.0679 84.4947 17.4819C84.1311 17.8858 83.8333 18.3503 83.601 18.8754C83.3789 19.3904 83.2123 19.9255 83.1012 20.4809V24.4038C83.3031 25.1107 83.5859 25.7771 83.9494 26.4032C84.3129 27.0191 84.7976 27.5189 85.4034 27.9027C86.0093 28.2763 86.7717 28.4631 87.6906 28.4631C88.4479 28.4631 89.0992 28.3066 89.6444 27.9935C90.1998 27.6704 90.6542 27.2312 91.0076 26.6758C91.3711 26.1204 91.6387 25.4843 91.8104 24.7673C91.982 24.0403 92.0679 23.2678 92.0679 22.4499ZM105.26 30.7653C104.119 30.7653 103.084 30.5735 102.155 30.1898C101.237 29.796 100.444 29.2456 99.7774 28.5388C99.1211 27.832 98.6162 26.9939 98.2628 26.0245C97.9094 25.0551 97.7326 23.9949 97.7326 22.8437V22.2076C97.7326 20.8747 97.9296 19.6882 98.3234 18.6482C98.7172 17.598 99.2523 16.7094 99.9289 15.9824C100.605 15.2554 101.373 14.7051 102.231 14.3314C103.089 13.9578 103.978 13.771 104.897 13.771C106.068 13.771 107.078 13.973 107.926 14.3769C108.785 14.7808 109.486 15.3463 110.032 16.0733C110.577 16.7902 110.981 17.6384 111.243 18.6179C111.506 19.5873 111.637 20.6475 111.637 21.7986V23.0558H99.3988V20.7687H108.835V20.5566C108.795 19.8296 108.643 19.1228 108.381 18.4361C108.128 17.7495 107.724 17.184 107.169 16.7397C106.614 16.2954 105.856 16.0733 104.897 16.0733C104.261 16.0733 103.675 16.2096 103.14 16.4822C102.605 16.7448 102.145 17.1386 101.762 17.6637C101.378 18.1887 101.08 18.8299 100.868 19.5873C100.656 20.3446 100.55 21.218 100.55 22.2076V22.8437C100.55 23.6213 100.656 24.3533 100.868 25.04C101.09 25.7165 101.408 26.3123 101.822 26.8273C102.246 27.3422 102.756 27.7461 103.352 28.039C103.958 28.3318 104.644 28.4782 105.412 28.4782C106.401 28.4782 107.24 28.2763 107.926 27.8724C108.613 27.4685 109.214 26.9282 109.729 26.2517L111.425 27.5997C111.072 28.1349 110.622 28.6448 110.077 29.1295C109.532 29.6142 108.86 30.008 108.063 30.3109C107.275 30.6139 106.341 30.7653 105.26 30.7653ZM117.711 17.5728V30.4624H114.909V14.074H117.559L117.711 17.5728ZM117.044 21.6472L115.878 21.6017C115.888 20.4809 116.055 19.4459 116.378 18.4967C116.701 17.5374 117.155 16.7044 117.741 15.9975C118.327 15.2907 119.023 14.7454 119.831 14.3617C120.649 13.9679 121.553 13.771 122.543 13.771C123.35 13.771 124.077 13.8821 124.724 14.1042C125.37 14.3163 125.92 14.6596 126.375 15.1342C126.839 15.6088 127.192 16.2247 127.435 16.9821C127.677 17.7293 127.798 18.6431 127.798 19.7236V30.4624H124.981V19.6933C124.981 18.835 124.855 18.1483 124.602 17.6334C124.35 17.1083 123.981 16.7296 123.497 16.4974C123.012 16.255 122.416 16.1339 121.709 16.1339C121.013 16.1339 120.377 16.2803 119.801 16.5731C119.236 16.8659 118.746 17.2699 118.332 17.7848C117.928 18.2998 117.61 18.8905 117.378 19.557C117.155 20.2133 117.044 20.91 117.044 21.6472ZM138.446 30.4624H133.842L133.872 28.0844H138.446C140.022 28.0844 141.334 27.7562 142.384 27.0999C143.435 26.4334 144.222 25.5045 144.747 24.3129C145.282 23.1113 145.55 21.7078 145.55 20.1022V18.7542C145.55 17.492 145.399 16.3712 145.096 15.3917C144.793 14.4021 144.348 13.5691 143.763 12.8925C143.177 12.2059 142.46 11.6859 141.612 11.3324C140.774 10.979 139.809 10.8023 138.719 10.8023H133.751V8.40918H138.719C140.163 8.40918 141.481 8.65152 142.672 9.13621C143.864 9.6108 144.889 10.3025 145.747 11.2113C146.615 12.11 147.282 13.2005 147.746 14.4829C148.211 15.7552 148.443 17.1891 148.443 18.7845V20.1022C148.443 21.6977 148.211 23.1366 147.746 24.419C147.282 25.6913 146.61 26.7768 145.732 27.6755C144.863 28.5741 143.813 29.2658 142.581 29.7505C141.359 30.2251 139.981 30.4624 138.446 30.4624ZM135.402 8.40918V30.4624H132.479V8.40918H135.402ZM151.669 22.4499V22.1016C151.669 20.9201 151.841 19.8246 152.184 18.8148C152.527 17.7949 153.022 16.9114 153.668 16.1642C154.315 15.4068 155.097 14.8212 156.016 14.4072C156.935 13.9831 157.965 13.771 159.106 13.771C160.257 13.771 161.292 13.9831 162.211 14.4072C163.14 14.8212 163.928 15.4068 164.574 16.1642C165.23 16.9114 165.73 17.7949 166.073 18.8148C166.417 19.8246 166.588 20.9201 166.588 22.1016V22.4499C166.588 23.6314 166.417 24.7269 166.073 25.7367C165.73 26.7465 165.23 27.63 164.574 28.3873C163.928 29.1346 163.145 29.7202 162.226 30.1443C161.317 30.5583 160.287 30.7653 159.136 30.7653C157.985 30.7653 156.95 30.5583 156.031 30.1443C155.112 29.7202 154.325 29.1346 153.668 28.3873C153.022 27.63 152.527 26.7465 152.184 25.7367C151.841 24.7269 151.669 23.6314 151.669 22.4499ZM154.471 22.1016V22.4499C154.471 23.2678 154.567 24.0403 154.759 24.7673C154.951 25.4843 155.239 26.1204 155.622 26.6758C156.016 27.2312 156.506 27.6704 157.092 27.9935C157.677 28.3066 158.359 28.4631 159.136 28.4631C159.904 28.4631 160.575 28.3066 161.151 27.9935C161.736 27.6704 162.221 27.2312 162.605 26.6758C162.989 26.1204 163.276 25.4843 163.468 24.7673C163.67 24.0403 163.771 23.2678 163.771 22.4499V22.1016C163.771 21.2938 163.67 20.5314 163.468 19.8145C163.276 19.0874 162.984 18.4462 162.59 17.8909C162.206 17.3254 161.721 16.8811 161.136 16.558C160.56 16.2348 159.884 16.0733 159.106 16.0733C158.339 16.0733 157.662 16.2348 157.076 16.558C156.501 16.8811 156.016 17.3254 155.622 17.8909C155.239 18.4462 154.951 19.0874 154.759 19.8145C154.567 20.5314 154.471 21.2938 154.471 22.1016ZM169.36 22.4499V22.1016C169.36 20.9201 169.532 19.8246 169.875 18.8148C170.218 17.7949 170.713 16.9114 171.36 16.1642C172.006 15.4068 172.788 14.8212 173.707 14.4072C174.626 13.9831 175.656 13.771 176.797 13.771C177.948 13.771 178.983 13.9831 179.902 14.4072C180.831 14.8212 181.619 15.4068 182.265 16.1642C182.921 16.9114 183.421 17.7949 183.764 18.8148C184.108 19.8246 184.279 20.9201 184.279 22.1016V22.4499C184.279 23.6314 184.108 24.7269 183.764 25.7367C183.421 26.7465 182.921 27.63 182.265 28.3873C181.619 29.1346 180.836 29.7202 179.917 30.1443C179.008 30.5583 177.979 30.7653 176.827 30.7653C175.676 30.7653 174.641 30.5583 173.722 30.1443C172.803 29.7202 172.016 29.1346 171.36 28.3873C170.713 27.63 170.218 26.7465 169.875 25.7367C169.532 24.7269 169.36 23.6314 169.36 22.4499ZM172.162 22.1016V22.4499C172.162 23.2678 172.258 24.0403 172.45 24.7673C172.642 25.4843 172.93 26.1204 173.313 26.6758C173.707 27.2312 174.197 27.6704 174.783 27.9935C175.368 28.3066 176.05 28.4631 176.827 28.4631C177.595 28.4631 178.266 28.3066 178.842 27.9935C179.428 27.6704 179.912 27.2312 180.296 26.6758C180.68 26.1204 180.967 25.4843 181.159 24.7673C181.361 24.0403 181.462 23.2678 181.462 22.4499V22.1016C181.462 21.2938 181.361 20.5314 181.159 19.8145C180.967 19.0874 180.675 18.4462 180.281 17.8909C179.897 17.3254 179.412 16.8811 178.827 16.558C178.251 16.2348 177.575 16.0733 176.797 16.0733C176.03 16.0733 175.353 16.2348 174.767 16.558C174.192 16.8811 173.707 17.3254 173.313 17.8909C172.93 18.4462 172.642 19.0874 172.45 19.8145C172.258 20.5314 172.162 21.2938 172.162 22.1016ZM190.595 16.6488V30.4624H187.793V14.074H190.52L190.595 16.6488ZM195.715 13.9831L195.7 16.5883C195.468 16.5378 195.245 16.5075 195.033 16.4974C194.831 16.4772 194.599 16.4671 194.337 16.4671C193.69 16.4671 193.12 16.5681 192.625 16.77C192.13 16.972 191.711 17.2547 191.368 17.6182C191.025 17.9817 190.752 18.4159 190.55 18.9208C190.358 19.4156 190.232 19.9609 190.171 20.5566L189.384 21.011C189.384 20.0215 189.48 19.0925 189.672 18.2241C189.874 17.3557 190.181 16.5883 190.595 15.9218C191.009 15.2453 191.535 14.7202 192.171 14.3466C192.817 13.9629 193.584 13.771 194.473 13.771C194.675 13.771 194.907 13.7963 195.17 13.8468C195.432 13.8871 195.614 13.9326 195.715 13.9831Z" fill="#999999"/>
<path d="M26.5847 5.68242L42.0668 0.595459L26.5847 20.9433L42.0668 41.2911L26.5847 36.2042L42.0668 0.595459V41.2911" fill="#999999"/>
<path d="M26.5847 5.6825H0.781128L26.5847 20.9434L0.781128 36.2043H26.5847L0.781128 5.6825V36.2043" fill="#999999"/>
</svg>
