<svg width="159" height="42" viewBox="0 0 159 42" fill="none" xmlns="http://www.w3.org/2000/svg">
<path d="M65.8613 30.4615H61.2568L61.2871 28.0836H65.8613C67.4366 28.0836 68.7493 27.7554 69.7994 27.099C70.8496 26.4326 71.6372 25.5036 72.1623 24.3121C72.6974 23.1105 72.965 21.7069 72.965 20.1014V18.7533C72.965 17.4911 72.8136 16.3703 72.5106 15.3908C72.2077 14.4013 71.7634 13.5682 71.1777 12.8917C70.5921 12.205 69.8751 11.685 69.0269 11.3316C68.1888 10.9782 67.2245 10.8015 66.134 10.8015H61.1659V8.40833H66.134C67.5779 8.40833 68.8957 8.65067 70.0872 9.13536C71.2787 9.60995 72.3036 10.3016 73.1619 11.2104C74.0303 12.1091 74.6968 13.1997 75.1613 14.4821C75.6257 15.7544 75.858 17.1882 75.858 18.7836V20.1014C75.858 21.6968 75.6257 23.1357 75.1613 24.4181C74.6968 25.6904 74.0253 26.7759 73.1468 27.6746C72.2784 28.5733 71.2282 29.265 69.9963 29.7497C68.7745 30.2243 67.3962 30.4615 65.8613 30.4615ZM62.8169 8.40833V30.4615H59.8936V8.40833H62.8169ZM82.6285 16.648V30.4615H79.8264V14.0731H82.5527L82.6285 16.648ZM87.7479 13.9822L87.7328 16.5874C87.5006 16.5369 87.2784 16.5066 87.0664 16.4965C86.8644 16.4763 86.6322 16.4662 86.3696 16.4662C85.7234 16.4662 85.1529 16.5672 84.6581 16.7692C84.1633 16.9711 83.7442 17.2538 83.4009 17.6174C83.0576 17.9809 82.785 18.4151 82.583 18.92C82.3912 19.4147 82.2649 19.96 82.2044 20.5558L81.4167 21.0102C81.4167 20.0206 81.5127 19.0916 81.7045 18.2232C81.9065 17.3548 82.2144 16.5874 82.6285 15.921C83.0425 15.2444 83.5675 14.7193 84.2037 14.3457C84.8499 13.962 85.6174 13.7702 86.5059 13.7702C86.7079 13.7702 86.9401 13.7954 87.2027 13.8459C87.4652 13.8863 87.647 13.9317 87.7479 13.9822ZM89.2929 22.4491V22.1007C89.2929 20.9193 89.4645 19.8237 89.8079 18.8139C90.1512 17.7941 90.646 16.9105 91.2922 16.1633C91.9385 15.406 92.721 14.8203 93.6399 14.4063C94.5588 13.9822 95.5888 13.7702 96.7298 13.7702C97.8809 13.7702 98.9159 13.9822 99.8348 14.4063C100.764 14.8203 101.551 15.406 102.198 16.1633C102.854 16.9105 103.354 17.7941 103.697 18.8139C104.04 19.8237 104.212 20.9193 104.212 22.1007V22.4491C104.212 23.6305 104.04 24.7261 103.697 25.7359C103.354 26.7456 102.854 27.6292 102.198 28.3865C101.551 29.1337 100.769 29.7194 99.85 30.1435C98.9412 30.5575 97.9112 30.7645 96.7601 30.7645C95.609 30.7645 94.5739 30.5575 93.6551 30.1435C92.7362 29.7194 91.9486 29.1337 91.2922 28.3865C90.646 27.6292 90.1512 26.7456 89.8079 25.7359C89.4645 24.7261 89.2929 23.6305 89.2929 22.4491ZM92.095 22.1007V22.4491C92.095 23.267 92.1909 24.0395 92.3828 24.7665C92.5746 25.4834 92.8624 26.1196 93.2461 26.6749C93.6399 27.2303 94.1297 27.6696 94.7153 27.9927C95.301 28.3057 95.9826 28.4622 96.7601 28.4622C97.5275 28.4622 98.199 28.3057 98.7746 27.9927C99.3602 27.6696 99.8449 27.2303 100.229 26.6749C100.612 26.1196 100.9 25.4834 101.092 24.7665C101.294 24.0395 101.395 23.267 101.395 22.4491V22.1007C101.395 21.2929 101.294 20.5305 101.092 19.8136C100.9 19.0866 100.607 18.4454 100.213 17.89C99.8298 17.3245 99.3451 16.8802 98.7594 16.5571C98.1838 16.234 97.5073 16.0724 96.7298 16.0724C95.9624 16.0724 95.2858 16.234 94.7002 16.5571C94.1246 16.8802 93.6399 17.3245 93.2461 17.89C92.8624 18.4454 92.5746 19.0866 92.3828 19.8136C92.1909 20.5305 92.095 21.2929 92.095 22.1007ZM110.528 17.2236V36.7625H107.711V14.0731H110.286L110.528 17.2236ZM121.57 22.131V22.4491C121.57 23.6406 121.429 24.7463 121.146 25.7662C120.863 26.7759 120.449 27.6544 119.904 28.4016C119.369 29.1489 118.707 29.7295 117.92 30.1435C117.132 30.5575 116.228 30.7645 115.208 30.7645C114.168 30.7645 113.25 30.5928 112.452 30.2495C111.654 29.9062 110.978 29.4063 110.422 28.75C109.867 28.0937 109.423 27.306 109.089 26.3872C108.766 25.4683 108.544 24.4333 108.423 23.2821V21.5857C108.544 20.374 108.771 19.2885 109.104 18.3292C109.438 17.37 109.877 16.5521 110.422 15.8755C110.978 15.1889 111.649 14.6689 112.437 14.3154C113.224 13.9519 114.133 13.7702 115.163 13.7702C116.193 13.7702 117.107 13.9721 117.905 14.376C118.702 14.7698 119.374 15.3353 119.919 16.0724C120.464 16.8096 120.873 17.6931 121.146 18.7231C121.429 19.7429 121.57 20.8789 121.57 22.131ZM118.753 22.4491V22.131C118.753 21.3131 118.667 20.5457 118.495 19.8287C118.324 19.1017 118.056 18.4656 117.692 17.9203C117.339 17.3649 116.885 16.9307 116.329 16.6177C115.774 16.2946 115.113 16.133 114.345 16.133C113.638 16.133 113.022 16.2542 112.497 16.4965C111.982 16.7389 111.543 17.067 111.179 17.481C110.816 17.885 110.518 18.3494 110.286 18.8745C110.064 19.3895 109.897 19.9247 109.786 20.48V24.403C109.988 25.1098 110.271 25.7762 110.634 26.4023C110.998 27.0183 111.482 27.5181 112.088 27.9018C112.694 28.2754 113.457 28.4622 114.375 28.4622C115.133 28.4622 115.784 28.3057 116.329 27.9927C116.885 27.6696 117.339 27.2303 117.692 26.6749C118.056 26.1196 118.324 25.4834 118.495 24.7665C118.667 24.0395 118.753 23.267 118.753 22.4491ZM128.189 7.19661V30.4615H125.372V7.19661H128.189ZM139.488 30.7645C138.347 30.7645 137.312 30.5726 136.383 30.1889C135.464 29.7951 134.672 29.2448 134.005 28.5379C133.349 27.8311 132.844 26.993 132.491 26.0236C132.137 25.0543 131.96 23.994 131.96 22.8429V22.2067C131.96 20.8738 132.157 19.6874 132.551 18.6473C132.945 17.5972 133.48 16.7086 134.157 15.9815C134.833 15.2545 135.601 14.7042 136.459 14.3306C137.317 13.957 138.206 13.7702 139.125 13.7702C140.296 13.7702 141.306 13.9721 142.154 14.376C143.012 14.7799 143.714 15.3454 144.259 16.0724C144.805 16.7894 145.209 17.6376 145.471 18.617C145.734 19.5864 145.865 20.6467 145.865 21.7978V23.0549H133.627V20.7678H143.063V20.5558C143.022 19.8287 142.871 19.1219 142.608 18.4353C142.356 17.7486 141.952 17.1832 141.397 16.7389C140.841 16.2946 140.084 16.0724 139.125 16.0724C138.489 16.0724 137.903 16.2087 137.368 16.4814C136.833 16.7439 136.373 17.1377 135.989 17.6628C135.606 18.1879 135.308 18.8291 135.096 19.5864C134.884 20.3437 134.778 21.2172 134.778 22.2067V22.8429C134.778 23.6204 134.884 24.3525 135.096 25.0391C135.318 25.7157 135.636 26.3114 136.05 26.8264C136.474 27.3414 136.984 27.7453 137.58 28.0381C138.186 28.3309 138.872 28.4774 139.64 28.4774C140.629 28.4774 141.467 28.2754 142.154 27.8715C142.841 27.4676 143.441 26.9274 143.956 26.2508L145.653 27.5989C145.299 28.134 144.85 28.644 144.305 29.1287C143.759 29.6133 143.088 30.0072 142.29 30.3101C141.503 30.613 140.569 30.7645 139.488 30.7645ZM155.998 14.0731V16.2239H147.137V14.0731H155.998ZM150.136 10.0896H152.938V26.4023C152.938 26.9577 153.024 27.3767 153.196 27.6595C153.367 27.9422 153.59 28.129 153.862 28.2199C154.135 28.3108 154.428 28.3562 154.741 28.3562C154.973 28.3562 155.215 28.336 155.468 28.2956C155.73 28.2451 155.927 28.2047 156.058 28.1744L156.074 30.4615C155.851 30.5322 155.559 30.5979 155.195 30.6585C154.842 30.7291 154.412 30.7645 153.908 30.7645C153.221 30.7645 152.59 30.6282 152.014 30.3555C151.439 30.0829 150.979 29.6285 150.636 28.9923C150.303 28.3461 150.136 27.4777 150.136 26.3872V10.0896Z" fill="#999999"/>
<path d="M4.00291 12.8337C15.7229 -7.21399 36.6031 -1.02316 30.0439 19.752C23.4846 40.5271 42.7496 20.6829 41.8206 32.7186C40.8917 44.7544 4.43641 43.8286 16.1512 31.7826C27.8609 19.7367 29.2078 15.601 17.1627 23.3535C5.11762 31.1061 -4.97158 28.1811 4.00291 12.8337Z" fill="#999999"/>
<path d="M4.00291 12.8337C15.7229 -7.21399 36.6031 -1.02316 30.0439 19.752C23.4846 40.5271 42.7496 20.6829 41.8206 32.7186C40.8917 44.7544 4.43641 43.8286 16.1512 31.7826C27.8609 19.7367 29.2078 15.601 17.1627 23.3535C5.11762 31.1061 -4.97158 28.1811 4.00291 12.8337Z" fill="#999999"/>
</svg>
